# MagicaVoxel @ Ephtracy

# group
o 

# material
mtllib BossWood-1.mtl
usemtl palette

# normals
vn -1 0 0
vn 1 0 0
vn 0 0 1
vn 0 0 -1
vn 0 -1 0
vn 0 1 0

# texcoords
vt 0.748047 0.5
vt 0.779297 0.5
vt 0.908203 0.5

# verts
v 0.1 0 0.1
v 0.1 0 -0.6
v 0.1 0 -2.1
v 0.1 0 -2.2
v 0.1 0 -2.4
v 0.1 0 -2.6
v 0.1 0.1 -0.4
v 0.1 0.1 -0.6
v 0.1 0.2 -0.4
v 0.1 0.2 -0.5
v 0.1 0.4 -0.5
v 0.1 0.4 -0.6
v 0.1 0.5 0.1
v 0.1 0.5 -0.6
v 0.1 0.5 -2.1
v 0.1 0.5 -2.2
v 0.1 0.5 -2.4
v 0.1 0.5 -2.6
v 0.5 0 -2.5
v 0.5 0 -2.6
v 0.5 0.5 -2.5
v 0.5 0.5 -2.6
v 0.9 0 -2.4
v 0.9 0 -2.5
v 0.9 0.5 -2.4
v 0.9 0.5 -2.5
v 1.1 0 -2.3
v 1.1 0 -2.4
v 1.1 0.5 -2.3
v 1.1 0.5 -2.4
v 1.3 0 -2.2
v 1.3 0 -2.3
v 1.3 0.5 -2.2
v 1.3 0.5 -2.3
v 1.5 0 -2.1
v 1.5 0 -2.2
v 1.5 0.5 -2.1
v 1.5 0.5 -2.2
v 1.6 0 -2
v 1.6 0 -2.1
v 1.6 0.5 -2
v 1.6 0.5 -2.1
v 1.7 0 -1.9
v 1.7 0 -2
v 1.7 0.5 -1.9
v 1.7 0.5 -2
v 1.8 0 -1.8
v 1.8 0 -1.9
v 1.8 0.5 -1.8
v 1.8 0.5 -1.9
v 1.9 0 -1.7
v 1.9 0 -1.8
v 1.9 0.5 -1.7
v 1.9 0.5 -1.8
v 2 0 -1.6
v 2 0 -1.7
v 2 0.5 -1.6
v 2 0.5 -1.7
v 2.1 0 -1.5
v 2.1 0 -1.6
v 2.1 0.5 -1.5
v 2.1 0.5 -1.6
v 2.2 0 -1.3
v 2.2 0 -1.5
v 2.2 0.5 -1.3
v 2.2 0.5 -1.5
v 2.3 0 -1.1
v 2.3 0 -1.3
v 2.3 0.5 -1.1
v 2.3 0.5 -1.3
v 2.4 0 -0.9
v 2.4 0 -1.1
v 2.4 0.5 -0.9
v 2.4 0.5 -1.1
v 2.5 0 -0.5
v 2.5 0 -0.9
v 2.5 0.5 -0.5
v 2.5 0.5 -0.9
v 2.6 0 0.1
v 2.6 0 -0.5
v 2.6 0.5 0.1
v 2.6 0.5 -0.5
v 0.1 0 0.1
v 0.1 0.5 0.1
v 0.4 0.1 0.1
v 0.4 0.3 0.1
v 0.5 0.3 0.1
v 0.5 0.4 0.1
v 2.1 0.1 0.1
v 2.1 0.4 0.1
v 2.2 0 0.1
v 2.2 0.5 0.1
v 2.4 0 0.1
v 2.4 0.5 0.1
v 2.6 0 0.1
v 2.6 0.5 0.1
v 2.5 0 -0.5
v 2.5 0.5 -0.5
v 2.6 0 -0.5
v 2.6 0.5 -0.5
v 2.4 0 -0.9
v 2.4 0.5 -0.9
v 2.5 0 -0.9
v 2.5 0.5 -0.9
v 2.3 0 -1.1
v 2.3 0.5 -1.1
v 2.4 0 -1.1
v 2.4 0.5 -1.1
v 2.2 0 -1.3
v 2.2 0.5 -1.3
v 2.3 0 -1.3
v 2.3 0.5 -1.3
v 2.1 0 -1.5
v 2.1 0.5 -1.5
v 2.2 0 -1.5
v 2.2 0.5 -1.5
v 2 0 -1.6
v 2 0.5 -1.6
v 2.1 0 -1.6
v 2.1 0.5 -1.6
v 1.9 0 -1.7
v 1.9 0.5 -1.7
v 2 0 -1.7
v 2 0.5 -1.7
v 1.8 0 -1.8
v 1.8 0.5 -1.8
v 1.9 0 -1.8
v 1.9 0.5 -1.8
v 1.7 0 -1.9
v 1.7 0.5 -1.9
v 1.8 0 -1.9
v 1.8 0.5 -1.9
v 1.6 0 -2
v 1.6 0.5 -2
v 1.7 0 -2
v 1.7 0.5 -2
v 1.5 0 -2.1
v 1.5 0.5 -2.1
v 1.6 0 -2.1
v 1.6 0.5 -2.1
v 1.3 0 -2.2
v 1.3 0.5 -2.2
v 1.5 0 -2.2
v 1.5 0.5 -2.2
v 1.1 0 -2.3
v 1.1 0.5 -2.3
v 1.3 0 -2.3
v 1.3 0.5 -2.3
v 0.9 0 -2.4
v 0.9 0.5 -2.4
v 1.1 0 -2.4
v 1.1 0.5 -2.4
v 0.5 0 -2.5
v 0.5 0.5 -2.5
v 0.9 0 -2.5
v 0.9 0.5 -2.5
v 0.1 0 -2.6
v 0.1 0.5 -2.6
v 0.5 0 -2.6
v 0.5 0.5 -2.6
v 0.1 0 0.1
v 2.2 0 0.1
v 2.4 0 0.1
v 2.6 0 0.1
v 0.6 0 -0.1
v 2.1 0 -0.1
v 0.5 0 -0.2
v 0.6 0 -0.2
v 0.2 0 -0.5
v 0.5 0 -0.5
v 0.6 0 -0.5
v 2 0 -0.5
v 2.1 0 -0.5
v 2.2 0 -0.5
v 2.3 0 -0.5
v 2.4 0 -0.5
v 2.5 0 -0.5
v 2.6 0 -0.5
v 0.1 0 -0.6
v 0.2 0 -0.6
v 0.5 0 -0.6
v 0.6 0 -0.6
v 0.7 0 -0.6
v 0.6 0 -0.7
v 0.7 0 -0.7
v 0.8 0 -0.7
v 0.7 0 -0.8
v 0.8 0 -0.8
v 0.9 0 -0.8
v 1.9 0 -0.8
v 2 0 -0.8
v 2.1 0 -0.8
v 2.2 0 -0.8
v 2.3 0 -0.8
v 0.8 0 -0.9
v 0.9 0 -0.9
v 1 0 -0.9
v 2.4 0 -0.9
v 2.5 0 -0.9
v 0.9 0 -1
v 1 0 -1
v 1.1 0 -1
v 1.8 0 -1
v 1.9 0 -1
v 2 0 -1
v 1 0 -1.1
v 1.1 0 -1.1
v 1.2 0 -1.1
v 2.1 0 -1.1
v 2.2 0 -1.1
v 2.3 0 -1.1
v 2.4 0 -1.1
v 1.1 0 -1.2
v 1.2 0 -1.2
v 1.3 0 -1.2
v 1.7 0 -1.2
v 1.8 0 -1.2
v 1.9 0 -1.2
v 2 0 -1.2
v 2.1 0 -1.2
v 1.2 0 -1.3
v 1.3 0 -1.3
v 1.4 0 -1.3
v 1.6 0 -1.3
v 1.7 0 -1.3
v 1.8 0 -1.3
v 2.2 0 -1.3
v 2.3 0 -1.3
v 1.3 0 -1.4
v 1.4 0 -1.4
v 1.6 0 -1.4
v 1.9 0 -1.4
v 2 0 -1.4
v 1.6 0 -1.5
v 1.7 0 -1.5
v 1.8 0 -1.5
v 1.9 0 -1.5
v 2.1 0 -1.5
v 2.2 0 -1.5
v 1.3 0 -1.6
v 1.4 0 -1.6
v 1.5 0 -1.6
v 1.6 0 -1.6
v 1.7 0 -1.6
v 1.8 0 -1.6
v 2 0 -1.6
v 2.1 0 -1.6
v 1.2 0 -1.7
v 1.3 0 -1.7
v 1.5 0 -1.7
v 1.6 0 -1.7
v 1.7 0 -1.7
v 1.9 0 -1.7
v 2 0 -1.7
v 1 0 -1.8
v 1.2 0 -1.8
v 1.3 0 -1.8
v 1.5 0 -1.8
v 1.6 0 -1.8
v 1.8 0 -1.8
v 1.9 0 -1.8
v 0.8 0 -1.9
v 1 0 -1.9
v 1.2 0 -1.9
v 1.4 0 -1.9
v 1.5 0 -1.9
v 1.7 0 -1.9
v 1.8 0 -1.9
v 0.5 0 -2
v 0.8 0 -2
v 1 0 -2
v 1.2 0 -2
v 1.4 0 -2
v 1.6 0 -2
v 1.7 0 -2
v 0.1 0 -2.1
v 0.5 0 -2.1
v 0.8 0 -2.1
v 1.1 0 -2.1
v 1.2 0 -2.1
v 1.5 0 -2.1
v 1.6 0 -2.1
v 0.1 0 -2.2
v 0.5 0 -2.2
v 0.8 0 -2.2
v 1.1 0 -2.2
v 1.3 0 -2.2
v 1.5 0 -2.2
v 0.5 0 -2.3
v 0.8 0 -2.3
v 1.1 0 -2.3
v 1.3 0 -2.3
v 0.1 0 -2.4
v 0.5 0 -2.4
v 0.9 0 -2.4
v 1.1 0 -2.4
v 0.5 0 -2.5
v 0.9 0 -2.5
v 0.1 0 -2.6
v 0.5 0 -2.6
v 0.1 0.5 0.1
v 2.2 0.5 0.1
v 2.4 0.5 0.1
v 2.6 0.5 0.1
v 0.6 0.5 -0.1
v 2.1 0.5 -0.1
v 0.5 0.5 -0.2
v 0.6 0.5 -0.2
v 0.2 0.5 -0.5
v 0.5 0.5 -0.5
v 0.6 0.5 -0.5
v 2 0.5 -0.5
v 2.1 0.5 -0.5
v 2.2 0.5 -0.5
v 2.3 0.5 -0.5
v 2.4 0.5 -0.5
v 2.5 0.5 -0.5
v 2.6 0.5 -0.5
v 0.1 0.5 -0.6
v 0.2 0.5 -0.6
v 0.5 0.5 -0.6
v 0.6 0.5 -0.6
v 0.7 0.5 -0.6
v 0.6 0.5 -0.7
v 0.7 0.5 -0.7
v 0.8 0.5 -0.7
v 0.7 0.5 -0.8
v 0.8 0.5 -0.8
v 0.9 0.5 -0.8
v 1.9 0.5 -0.8
v 2 0.5 -0.8
v 2.1 0.5 -0.8
v 2.2 0.5 -0.8
v 2.3 0.5 -0.8
v 0.8 0.5 -0.9
v 0.9 0.5 -0.9
v 1 0.5 -0.9
v 2.4 0.5 -0.9
v 2.5 0.5 -0.9
v 0.9 0.5 -1
v 1 0.5 -1
v 1.1 0.5 -1
v 1.8 0.5 -1
v 1.9 0.5 -1
v 2 0.5 -1
v 1 0.5 -1.1
v 1.1 0.5 -1.1
v 1.2 0.5 -1.1
v 2.1 0.5 -1.1
v 2.2 0.5 -1.1
v 2.3 0.5 -1.1
v 2.4 0.5 -1.1
v 1.1 0.5 -1.2
v 1.2 0.5 -1.2
v 1.3 0.5 -1.2
v 1.7 0.5 -1.2
v 1.8 0.5 -1.2
v 1.9 0.5 -1.2
v 2 0.5 -1.2
v 2.1 0.5 -1.2
v 1.2 0.5 -1.3
v 1.3 0.5 -1.3
v 1.4 0.5 -1.3
v 1.6 0.5 -1.3
v 1.7 0.5 -1.3
v 1.8 0.5 -1.3
v 2.2 0.5 -1.3
v 2.3 0.5 -1.3
v 1.3 0.5 -1.4
v 1.4 0.5 -1.4
v 1.6 0.5 -1.4
v 1.9 0.5 -1.4
v 2 0.5 -1.4
v 1.6 0.5 -1.5
v 1.7 0.5 -1.5
v 1.8 0.5 -1.5
v 1.9 0.5 -1.5
v 2.1 0.5 -1.5
v 2.2 0.5 -1.5
v 1.3 0.5 -1.6
v 1.4 0.5 -1.6
v 1.5 0.5 -1.6
v 1.6 0.5 -1.6
v 1.7 0.5 -1.6
v 1.8 0.5 -1.6
v 2 0.5 -1.6
v 2.1 0.5 -1.6
v 1.2 0.5 -1.7
v 1.3 0.5 -1.7
v 1.5 0.5 -1.7
v 1.6 0.5 -1.7
v 1.7 0.5 -1.7
v 1.9 0.5 -1.7
v 2 0.5 -1.7
v 1 0.5 -1.8
v 1.2 0.5 -1.8
v 1.3 0.5 -1.8
v 1.5 0.5 -1.8
v 1.6 0.5 -1.8
v 1.8 0.5 -1.8
v 1.9 0.5 -1.8
v 0.8 0.5 -1.9
v 1 0.5 -1.9
v 1.2 0.5 -1.9
v 1.4 0.5 -1.9
v 1.5 0.5 -1.9
v 1.7 0.5 -1.9
v 1.8 0.5 -1.9
v 0.5 0.5 -2
v 0.8 0.5 -2
v 1 0.5 -2
v 1.2 0.5 -2
v 1.4 0.5 -2
v 1.6 0.5 -2
v 1.7 0.5 -2
v 0.1 0.5 -2.1
v 0.5 0.5 -2.1
v 0.8 0.5 -2.1
v 1.1 0.5 -2.1
v 1.2 0.5 -2.1
v 1.5 0.5 -2.1
v 1.6 0.5 -2.1
v 0.1 0.5 -2.2
v 0.5 0.5 -2.2
v 0.8 0.5 -2.2
v 1.1 0.5 -2.2
v 1.3 0.5 -2.2
v 1.5 0.5 -2.2
v 0.5 0.5 -2.3
v 0.8 0.5 -2.3
v 1.1 0.5 -2.3
v 1.3 0.5 -2.3
v 0.1 0.5 -2.4
v 0.5 0.5 -2.4
v 0.9 0.5 -2.4
v 1.1 0.5 -2.4
v 0.5 0.5 -2.5
v 0.9 0.5 -2.5
v 0.1 0.5 -2.6
v 0.5 0.5 -2.6

# faces
f 7/1/1 2/1/1 1/1/1
f 8/2/1 3/2/1 2/2/1
f 8/1/1 2/1/1 7/1/1
f 9/1/1 7/1/1 1/1/1
f 9/2/1 8/2/1 7/2/1
f 10/2/1 8/2/1 9/2/1
f 11/1/1 10/1/1 9/1/1
f 11/2/1 8/2/1 10/2/1
f 12/2/1 3/2/1 8/2/1
f 12/2/1 8/2/1 11/2/1
f 13/1/1 11/1/1 9/1/1
f 13/1/1 9/1/1 1/1/1
f 13/1/1 12/1/1 11/1/1
f 14/2/1 3/2/1 12/2/1
f 14/1/1 12/1/1 13/1/1
f 15/1/1 4/1/1 3/1/1
f 15/2/1 3/2/1 14/2/1
f 16/2/1 5/2/1 4/2/1
f 16/1/1 4/1/1 15/1/1
f 17/3/1 6/3/1 5/3/1
f 17/2/1 5/2/1 16/2/1
f 18/3/1 6/3/1 17/3/1
f 19/3/2 20/3/2 21/3/2
f 21/3/2 20/3/2 22/3/2
f 23/3/2 24/3/2 25/3/2
f 25/3/2 24/3/2 26/3/2
f 27/3/2 28/3/2 29/3/2
f 29/3/2 28/3/2 30/3/2
f 31/3/2 32/3/2 33/3/2
f 33/3/2 32/3/2 34/3/2
f 35/3/2 36/3/2 37/3/2
f 37/3/2 36/3/2 38/3/2
f 39/3/2 40/3/2 41/3/2
f 41/3/2 40/3/2 42/3/2
f 43/3/2 44/3/2 45/3/2
f 45/3/2 44/3/2 46/3/2
f 47/3/2 48/3/2 49/3/2
f 49/3/2 48/3/2 50/3/2
f 51/3/2 52/3/2 53/3/2
f 53/3/2 52/3/2 54/3/2
f 55/3/2 56/3/2 57/3/2
f 57/3/2 56/3/2 58/3/2
f 59/3/2 60/3/2 61/3/2
f 61/3/2 60/3/2 62/3/2
f 63/3/2 64/3/2 65/3/2
f 65/3/2 64/3/2 66/3/2
f 67/3/2 68/3/2 69/3/2
f 69/3/2 68/3/2 70/3/2
f 71/3/2 72/3/2 73/3/2
f 73/3/2 72/3/2 74/3/2
f 75/3/2 76/3/2 77/3/2
f 77/3/2 76/3/2 78/3/2
f 79/3/2 80/3/2 81/3/2
f 81/3/2 80/3/2 82/3/2
f 85/1/3 84/1/3 83/1/3
f 86/1/3 84/1/3 85/1/3
f 87/2/3 86/2/3 85/2/3
f 87/1/3 84/1/3 86/1/3
f 88/1/3 84/1/3 87/1/3
f 89/1/3 85/1/3 83/1/3
f 89/2/3 87/2/3 85/2/3
f 89/2/3 88/2/3 87/2/3
f 90/1/3 84/1/3 88/1/3
f 90/2/3 88/2/3 89/2/3
f 91/1/3 89/1/3 83/1/3
f 91/1/3 90/1/3 89/1/3
f 92/1/3 84/1/3 90/1/3
f 92/1/3 90/1/3 91/1/3
f 93/2/3 92/2/3 91/2/3
f 94/2/3 92/2/3 93/2/3
f 95/3/3 94/3/3 93/3/3
f 96/3/3 94/3/3 95/3/3
f 97/3/4 98/3/4 99/3/4
f 99/3/4 98/3/4 100/3/4
f 101/3/4 102/3/4 103/3/4
f 103/3/4 102/3/4 104/3/4
f 105/3/4 106/3/4 107/3/4
f 107/3/4 106/3/4 108/3/4
f 109/3/4 110/3/4 111/3/4
f 111/3/4 110/3/4 112/3/4
f 113/3/4 114/3/4 115/3/4
f 115/3/4 114/3/4 116/3/4
f 117/3/4 118/3/4 119/3/4
f 119/3/4 118/3/4 120/3/4
f 121/3/4 122/3/4 123/3/4
f 123/3/4 122/3/4 124/3/4
f 125/3/4 126/3/4 127/3/4
f 127/3/4 126/3/4 128/3/4
f 129/3/4 130/3/4 131/3/4
f 131/3/4 130/3/4 132/3/4
f 133/3/4 134/3/4 135/3/4
f 135/3/4 134/3/4 136/3/4
f 137/3/4 138/3/4 139/3/4
f 139/3/4 138/3/4 140/3/4
f 141/3/4 142/3/4 143/3/4
f 143/3/4 142/3/4 144/3/4
f 145/3/4 146/3/4 147/3/4
f 147/3/4 146/3/4 148/3/4
f 149/3/4 150/3/4 151/3/4
f 151/3/4 150/3/4 152/3/4
f 153/3/4 154/3/4 155/3/4
f 155/3/4 154/3/4 156/3/4
f 157/3/4 158/3/4 159/3/4
f 159/3/4 158/3/4 160/3/4
f 165/1/5 162/1/5 161/1/5
f 166/1/5 162/1/5 165/1/5
f 167/1/5 165/1/5 161/1/5
f 168/2/5 166/2/5 165/2/5
f 168/1/5 165/1/5 167/1/5
f 169/1/5 167/1/5 161/1/5
f 170/2/5 168/2/5 167/2/5
f 170/1/5 167/1/5 169/1/5
f 171/2/5 166/2/5 168/2/5
f 171/2/5 168/2/5 170/2/5
f 172/2/5 166/2/5 171/2/5
f 173/1/5 162/1/5 166/1/5
f 173/2/5 166/2/5 172/2/5
f 174/2/5 163/2/5 162/2/5
f 174/1/5 162/1/5 173/1/5
f 175/2/5 163/2/5 174/2/5
f 176/3/5 164/3/5 163/3/5
f 176/2/5 163/2/5 175/2/5
f 177/3/5 164/3/5 176/3/5
f 178/3/5 164/3/5 177/3/5
f 179/1/5 169/1/5 161/1/5
f 180/2/5 170/2/5 169/2/5
f 180/1/5 169/1/5 179/1/5
f 181/1/5 171/1/5 170/1/5
f 181/2/5 170/2/5 180/2/5
f 182/2/5 172/2/5 171/2/5
f 182/1/5 171/1/5 181/1/5
f 183/2/5 172/2/5 182/2/5
f 184/2/5 181/2/5 180/2/5
f 184/2/5 180/2/5 179/2/5
f 184/1/5 183/1/5 182/1/5
f 184/2/5 182/2/5 181/2/5
f 185/2/5 172/2/5 183/2/5
f 185/1/5 183/1/5 184/1/5
f 186/2/5 172/2/5 185/2/5
f 187/2/5 185/2/5 184/2/5
f 187/1/5 186/1/5 185/1/5
f 188/2/5 172/2/5 186/2/5
f 188/1/5 186/1/5 187/1/5
f 189/2/5 172/2/5 188/2/5
f 190/2/5 172/2/5 189/2/5
f 191/1/5 173/1/5 172/1/5
f 191/2/5 172/2/5 190/2/5
f 192/2/5 175/2/5 174/2/5
f 192/1/5 173/1/5 191/1/5
f 192/2/5 174/2/5 173/2/5
f 193/2/5 175/2/5 192/2/5
f 194/3/5 177/3/5 176/3/5
f 194/2/5 175/2/5 193/2/5
f 194/3/5 176/3/5 175/3/5
f 195/1/5 189/1/5 188/1/5
f 195/2/5 188/2/5 187/2/5
f 196/2/5 190/2/5 189/2/5
f 196/1/5 189/1/5 195/1/5
f 197/2/5 190/2/5 196/2/5
f 198/3/5 177/3/5 194/3/5
f 198/3/5 194/3/5 193/3/5
f 199/3/5 177/3/5 198/3/5
f 200/1/5 197/1/5 196/1/5
f 200/2/5 196/2/5 195/2/5
f 201/2/5 190/2/5 197/2/5
f 201/1/5 197/1/5 200/1/5
f 202/2/5 190/2/5 201/2/5
f 203/2/5 190/2/5 202/2/5
f 204/1/5 191/1/5 190/1/5
f 204/2/5 190/2/5 203/2/5
f 205/2/5 193/2/5 192/2/5
f 205/1/5 191/1/5 204/1/5
f 205/2/5 192/2/5 191/2/5
f 206/1/5 202/1/5 201/1/5
f 206/2/5 201/2/5 200/2/5
f 207/2/5 203/2/5 202/2/5
f 207/1/5 202/1/5 206/1/5
f 208/2/5 203/2/5 207/2/5
f 209/2/5 193/2/5 205/2/5
f 209/2/5 205/2/5 204/2/5
f 210/3/5 198/3/5 193/3/5
f 210/2/5 193/2/5 209/2/5
f 211/3/5 198/3/5 210/3/5
f 212/3/5 198/3/5 211/3/5
f 213/1/5 208/1/5 207/1/5
f 213/2/5 207/2/5 206/2/5
f 214/2/5 203/2/5 208/2/5
f 214/1/5 208/1/5 213/1/5
f 215/2/5 203/2/5 214/2/5
f 216/2/5 203/2/5 215/2/5
f 217/1/5 204/1/5 203/1/5
f 217/2/5 203/2/5 216/2/5
f 218/2/5 209/2/5 204/2/5
f 218/1/5 204/1/5 217/1/5
f 219/2/5 209/2/5 218/2/5
f 220/3/5 211/3/5 210/3/5
f 220/2/5 209/2/5 219/2/5
f 220/3/5 210/3/5 209/3/5
f 221/2/5 214/2/5 213/2/5
f 221/1/5 215/1/5 214/1/5
f 222/2/5 216/2/5 215/2/5
f 222/1/5 215/1/5 221/1/5
f 223/2/5 216/2/5 222/2/5
f 224/2/5 216/2/5 223/2/5
f 225/1/5 217/1/5 216/1/5
f 225/2/5 216/2/5 224/2/5
f 226/2/5 219/2/5 218/2/5
f 226/1/5 217/1/5 225/1/5
f 226/2/5 218/2/5 217/2/5
f 227/3/5 211/3/5 220/3/5
f 227/3/5 220/3/5 219/3/5
f 228/3/5 211/3/5 227/3/5
f 229/1/5 223/1/5 222/1/5
f 229/2/5 222/2/5 221/2/5
f 230/2/5 224/2/5 223/2/5
f 230/1/5 223/1/5 229/1/5
f 231/1/5 225/1/5 224/1/5
f 231/2/5 224/2/5 230/2/5
f 232/2/5 219/2/5 226/2/5
f 232/2/5 226/2/5 225/2/5
f 233/3/5 227/3/5 219/3/5
f 233/2/5 219/2/5 232/2/5
f 234/1/5 225/1/5 231/1/5
f 234/1/5 231/1/5 230/1/5
f 235/2/5 232/2/5 225/2/5
f 235/1/5 225/1/5 234/1/5
f 236/2/5 232/2/5 235/2/5
f 237/3/5 233/3/5 232/3/5
f 237/2/5 232/2/5 236/2/5
f 238/3/5 227/3/5 233/3/5
f 238/3/5 233/3/5 237/3/5
f 239/3/5 227/3/5 238/3/5
f 240/2/5 229/2/5 221/2/5
f 240/2/5 230/2/5 229/2/5
f 241/1/5 234/1/5 230/1/5
f 241/2/5 230/2/5 240/2/5
f 242/1/5 234/1/5 241/1/5
f 243/2/5 236/2/5 235/2/5
f 243/1/5 234/1/5 242/1/5
f 243/2/5 235/2/5 234/2/5
f 244/2/5 236/2/5 243/2/5
f 245/3/5 238/3/5 237/3/5
f 245/2/5 236/2/5 244/2/5
f 245/3/5 237/3/5 236/3/5
f 246/3/5 238/3/5 245/3/5
f 247/3/5 238/3/5 246/3/5
f 248/2/5 221/2/5 213/2/5
f 248/2/5 240/2/5 221/2/5
f 249/1/5 242/1/5 241/1/5
f 249/2/5 240/2/5 248/2/5
f 249/1/5 241/1/5 240/1/5
f 250/2/5 244/2/5 243/2/5
f 250/1/5 242/1/5 249/1/5
f 250/2/5 243/2/5 242/2/5
f 251/2/5 244/2/5 250/2/5
f 252/3/5 245/3/5 244/3/5
f 252/2/5 244/2/5 251/2/5
f 252/3/5 246/3/5 245/3/5
f 253/3/5 246/3/5 252/3/5
f 254/3/5 246/3/5 253/3/5
f 255/2/5 206/2/5 200/2/5
f 255/2/5 213/2/5 206/2/5
f 255/2/5 248/2/5 213/2/5
f 256/1/5 249/1/5 248/1/5
f 256/2/5 248/2/5 255/2/5
f 257/2/5 251/2/5 250/2/5
f 257/1/5 249/1/5 256/1/5
f 257/2/5 250/2/5 249/2/5
f 258/2/5 251/2/5 257/2/5
f 259/3/5 253/3/5 252/3/5
f 259/2/5 251/2/5 258/2/5
f 259/3/5 252/3/5 251/3/5
f 260/3/5 253/3/5 259/3/5
f 261/3/5 253/3/5 260/3/5
f 262/2/5 195/2/5 187/2/5
f 262/2/5 200/2/5 195/2/5
f 262/2/5 255/2/5 200/2/5
f 263/1/5 256/1/5 255/1/5
f 263/2/5 255/2/5 262/2/5
f 264/2/5 258/2/5 257/2/5
f 264/1/5 256/1/5 263/1/5
f 264/2/5 257/2/5 256/2/5
f 265/2/5 258/2/5 264/2/5
f 266/3/5 260/3/5 259/3/5
f 266/2/5 258/2/5 265/2/5
f 266/3/5 259/3/5 258/3/5
f 267/3/5 260/3/5 266/3/5
f 268/3/5 260/3/5 267/3/5
f 269/2/5 184/2/5 179/2/5
f 269/2/5 187/2/5 184/2/5
f 269/2/5 262/2/5 187/2/5
f 270/1/5 263/1/5 262/1/5
f 270/2/5 262/2/5 269/2/5
f 271/2/5 265/2/5 264/2/5
f 271/1/5 263/1/5 270/1/5
f 271/2/5 264/2/5 263/2/5
f 272/2/5 265/2/5 271/2/5
f 273/3/5 267/3/5 266/3/5
f 273/2/5 265/2/5 272/2/5
f 273/3/5 266/3/5 265/3/5
f 274/3/5 267/3/5 273/3/5
f 275/3/5 267/3/5 274/3/5
f 276/2/5 269/2/5 179/2/5
f 277/1/5 270/1/5 269/1/5
f 277/2/5 269/2/5 276/2/5
f 278/2/5 272/2/5 271/2/5
f 278/1/5 270/1/5 277/1/5
f 278/2/5 271/2/5 270/2/5
f 279/2/5 272/2/5 278/2/5
f 280/3/5 274/3/5 273/3/5
f 280/2/5 272/2/5 279/2/5
f 280/3/5 273/3/5 272/3/5
f 281/3/5 274/3/5 280/3/5
f 282/3/5 274/3/5 281/3/5
f 283/1/5 277/1/5 276/1/5
f 284/2/5 279/2/5 278/2/5
f 284/1/5 277/1/5 283/1/5
f 284/2/5 278/2/5 277/2/5
f 285/2/5 279/2/5 284/2/5
f 286/3/5 281/3/5 280/3/5
f 286/2/5 279/2/5 285/2/5
f 286/3/5 280/3/5 279/3/5
f 287/3/5 281/3/5 286/3/5
f 288/3/5 281/3/5 287/3/5
f 289/2/5 285/2/5 284/2/5
f 289/2/5 284/2/5 283/2/5
f 290/3/5 287/3/5 286/3/5
f 290/2/5 285/2/5 289/2/5
f 290/3/5 286/3/5 285/3/5
f 291/3/5 287/3/5 290/3/5
f 292/3/5 287/3/5 291/3/5
f 293/2/5 289/2/5 283/2/5
f 294/3/5 290/3/5 289/3/5
f 294/2/5 289/2/5 293/2/5
f 294/3/5 291/3/5 290/3/5
f 295/3/5 291/3/5 294/3/5
f 296/3/5 291/3/5 295/3/5
f 297/3/5 294/3/5 293/3/5
f 297/3/5 295/3/5 294/3/5
f 298/3/5 295/3/5 297/3/5
f 299/3/5 297/3/5 293/3/5
f 300/3/5 297/3/5 299/3/5
f 301/1/6 302/1/6 305/1/6
f 305/1/6 302/1/6 306/1/6
f 301/1/6 305/1/6 307/1/6
f 305/2/6 306/2/6 308/2/6
f 307/1/6 305/1/6 308/1/6
f 301/1/6 307/1/6 309/1/6
f 307/2/6 308/2/6 310/2/6
f 309/1/6 307/1/6 310/1/6
f 308/2/6 306/2/6 311/2/6
f 310/2/6 308/2/6 311/2/6
f 311/2/6 306/2/6 312/2/6
f 306/1/6 302/1/6 313/1/6
f 312/2/6 306/2/6 313/2/6
f 302/2/6 303/2/6 314/2/6
f 313/1/6 302/1/6 314/1/6
f 314/2/6 303/2/6 315/2/6
f 303/3/6 304/3/6 316/3/6
f 315/2/6 303/2/6 316/2/6
f 316/3/6 304/3/6 317/3/6
f 317/3/6 304/3/6 318/3/6
f 301/1/6 309/1/6 319/1/6
f 309/2/6 310/2/6 320/2/6
f 319/1/6 309/1/6 320/1/6
f 310/1/6 311/1/6 321/1/6
f 320/2/6 310/2/6 321/2/6
f 311/2/6 312/2/6 322/2/6
f 321/1/6 311/1/6 322/1/6
f 322/2/6 312/2/6 323/2/6
f 320/2/6 321/2/6 324/2/6
f 319/2/6 320/2/6 324/2/6
f 322/1/6 323/1/6 324/1/6
f 321/2/6 322/2/6 324/2/6
f 323/2/6 312/2/6 325/2/6
f 324/1/6 323/1/6 325/1/6
f 325/2/6 312/2/6 326/2/6
f 324/2/6 325/2/6 327/2/6
f 325/1/6 326/1/6 327/1/6
f 326/2/6 312/2/6 328/2/6
f 327/1/6 326/1/6 328/1/6
f 328/2/6 312/2/6 329/2/6
f 329/2/6 312/2/6 330/2/6
f 312/1/6 313/1/6 331/1/6
f 330/2/6 312/2/6 331/2/6
f 314/2/6 315/2/6 332/2/6
f 331/1/6 313/1/6 332/1/6
f 313/2/6 314/2/6 332/2/6
f 332/2/6 315/2/6 333/2/6
f 316/3/6 317/3/6 334/3/6
f 333/2/6 315/2/6 334/2/6
f 315/3/6 316/3/6 334/3/6
f 328/1/6 329/1/6 335/1/6
f 327/2/6 328/2/6 335/2/6
f 329/2/6 330/2/6 336/2/6
f 335/1/6 329/1/6 336/1/6
f 336/2/6 330/2/6 337/2/6
f 334/3/6 317/3/6 338/3/6
f 333/3/6 334/3/6 338/3/6
f 338/3/6 317/3/6 339/3/6
f 336/1/6 337/1/6 340/1/6
f 335/2/6 336/2/6 340/2/6
f 337/2/6 330/2/6 341/2/6
f 340/1/6 337/1/6 341/1/6
f 341/2/6 330/2/6 342/2/6
f 342/2/6 330/2/6 343/2/6
f 330/1/6 331/1/6 344/1/6
f 343/2/6 330/2/6 344/2/6
f 332/2/6 333/2/6 345/2/6
f 344/1/6 331/1/6 345/1/6
f 331/2/6 332/2/6 345/2/6
f 341/1/6 342/1/6 346/1/6
f 340/2/6 341/2/6 346/2/6
f 342/2/6 343/2/6 347/2/6
f 346/1/6 342/1/6 347/1/6
f 347/2/6 343/2/6 348/2/6
f 345/2/6 333/2/6 349/2/6
f 344/2/6 345/2/6 349/2/6
f 333/3/6 338/3/6 350/3/6
f 349/2/6 333/2/6 350/2/6
f 350/3/6 338/3/6 351/3/6
f 351/3/6 338/3/6 352/3/6
f 347/1/6 348/1/6 353/1/6
f 346/2/6 347/2/6 353/2/6
f 348/2/6 343/2/6 354/2/6
f 353/1/6 348/1/6 354/1/6
f 354/2/6 343/2/6 355/2/6
f 355/2/6 343/2/6 356/2/6
f 343/1/6 344/1/6 357/1/6
f 356/2/6 343/2/6 357/2/6
f 344/2/6 349/2/6 358/2/6
f 357/1/6 344/1/6 358/1/6
f 358/2/6 349/2/6 359/2/6
f 350/3/6 351/3/6 360/3/6
f 359/2/6 349/2/6 360/2/6
f 349/3/6 350/3/6 360/3/6
f 353/2/6 354/2/6 361/2/6
f 354/1/6 355/1/6 361/1/6
f 355/2/6 356/2/6 362/2/6
f 361/1/6 355/1/6 362/1/6
f 362/2/6 356/2/6 363/2/6
f 363/2/6 356/2/6 364/2/6
f 356/1/6 357/1/6 365/1/6
f 364/2/6 356/2/6 365/2/6
f 358/2/6 359/2/6 366/2/6
f 365/1/6 357/1/6 366/1/6
f 357/2/6 358/2/6 366/2/6
f 360/3/6 351/3/6 367/3/6
f 359/3/6 360/3/6 367/3/6
f 367/3/6 351/3/6 368/3/6
f 362/1/6 363/1/6 369/1/6
f 361/2/6 362/2/6 369/2/6
f 363/2/6 364/2/6 370/2/6
f 369/1/6 363/1/6 370/1/6
f 364/1/6 365/1/6 371/1/6
f 370/2/6 364/2/6 371/2/6
f 366/2/6 359/2/6 372/2/6
f 365/2/6 366/2/6 372/2/6
f 359/3/6 367/3/6 373/3/6
f 372/2/6 359/2/6 373/2/6
f 371/1/6 365/1/6 374/1/6
f 370/1/6 371/1/6 374/1/6
f 365/2/6 372/2/6 375/2/6
f 374/1/6 365/1/6 375/1/6
f 375/2/6 372/2/6 376/2/6
f 372/3/6 373/3/6 377/3/6
f 376/2/6 372/2/6 377/2/6
f 373/3/6 367/3/6 378/3/6
f 377/3/6 373/3/6 378/3/6
f 378/3/6 367/3/6 379/3/6
f 361/2/6 369/2/6 380/2/6
f 369/2/6 370/2/6 380/2/6
f 370/1/6 374/1/6 381/1/6
f 380/2/6 370/2/6 381/2/6
f 381/1/6 374/1/6 382/1/6
f 375/2/6 376/2/6 383/2/6
f 382/1/6 374/1/6 383/1/6
f 374/2/6 375/2/6 383/2/6
f 383/2/6 376/2/6 384/2/6
f 377/3/6 378/3/6 385/3/6
f 384/2/6 376/2/6 385/2/6
f 376/3/6 377/3/6 385/3/6
f 385/3/6 378/3/6 386/3/6
f 386/3/6 378/3/6 387/3/6
f 353/2/6 361/2/6 388/2/6
f 361/2/6 380/2/6 388/2/6
f 381/1/6 382/1/6 389/1/6
f 388/2/6 380/2/6 389/2/6
f 380/1/6 381/1/6 389/1/6
f 383/2/6 384/2/6 390/2/6
f 389/1/6 382/1/6 390/1/6
f 382/2/6 383/2/6 390/2/6
f 390/2/6 384/2/6 391/2/6
f 384/3/6 385/3/6 392/3/6
f 391/2/6 384/2/6 392/2/6
f 385/3/6 386/3/6 392/3/6
f 392/3/6 386/3/6 393/3/6
f 393/3/6 386/3/6 394/3/6
f 340/2/6 346/2/6 395/2/6
f 346/2/6 353/2/6 395/2/6
f 353/2/6 388/2/6 395/2/6
f 388/1/6 389/1/6 396/1/6
f 395/2/6 388/2/6 396/2/6
f 390/2/6 391/2/6 397/2/6
f 396/1/6 389/1/6 397/1/6
f 389/2/6 390/2/6 397/2/6
f 397/2/6 391/2/6 398/2/6
f 392/3/6 393/3/6 399/3/6
f 398/2/6 391/2/6 399/2/6
f 391/3/6 392/3/6 399/3/6
f 399/3/6 393/3/6 400/3/6
f 400/3/6 393/3/6 401/3/6
f 327/2/6 335/2/6 402/2/6
f 335/2/6 340/2/6 402/2/6
f 340/2/6 395/2/6 402/2/6
f 395/1/6 396/1/6 403/1/6
f 402/2/6 395/2/6 403/2/6
f 397/2/6 398/2/6 404/2/6
f 403/1/6 396/1/6 404/1/6
f 396/2/6 397/2/6 404/2/6
f 404/2/6 398/2/6 405/2/6
f 399/3/6 400/3/6 406/3/6
f 405/2/6 398/2/6 406/2/6
f 398/3/6 399/3/6 406/3/6
f 406/3/6 400/3/6 407/3/6
f 407/3/6 400/3/6 408/3/6
f 319/2/6 324/2/6 409/2/6
f 324/2/6 327/2/6 409/2/6
f 327/2/6 402/2/6 409/2/6
f 402/1/6 403/1/6 410/1/6
f 409/2/6 402/2/6 410/2/6
f 404/2/6 405/2/6 411/2/6
f 410/1/6 403/1/6 411/1/6
f 403/2/6 404/2/6 411/2/6
f 411/2/6 405/2/6 412/2/6
f 406/3/6 407/3/6 413/3/6
f 412/2/6 405/2/6 413/2/6
f 405/3/6 406/3/6 413/3/6
f 413/3/6 407/3/6 414/3/6
f 414/3/6 407/3/6 415/3/6
f 319/2/6 409/2/6 416/2/6
f 409/1/6 410/1/6 417/1/6
f 416/2/6 409/2/6 417/2/6
f 411/2/6 412/2/6 418/2/6
f 417/1/6 410/1/6 418/1/6
f 410/2/6 411/2/6 418/2/6
f 418/2/6 412/2/6 419/2/6
f 413/3/6 414/3/6 420/3/6
f 419/2/6 412/2/6 420/2/6
f 412/3/6 413/3/6 420/3/6
f 420/3/6 414/3/6 421/3/6
f 421/3/6 414/3/6 422/3/6
f 416/1/6 417/1/6 423/1/6
f 418/2/6 419/2/6 424/2/6
f 423/1/6 417/1/6 424/1/6
f 417/2/6 418/2/6 424/2/6
f 424/2/6 419/2/6 425/2/6
f 420/3/6 421/3/6 426/3/6
f 425/2/6 419/2/6 426/2/6
f 419/3/6 420/3/6 426/3/6
f 426/3/6 421/3/6 427/3/6
f 427/3/6 421/3/6 428/3/6
f 424/2/6 425/2/6 429/2/6
f 423/2/6 424/2/6 429/2/6
f 426/3/6 427/3/6 430/3/6
f 429/2/6 425/2/6 430/2/6
f 425/3/6 426/3/6 430/3/6
f 430/3/6 427/3/6 431/3/6
f 431/3/6 427/3/6 432/3/6
f 423/2/6 429/2/6 433/2/6
f 429/3/6 430/3/6 434/3/6
f 433/2/6 429/2/6 434/2/6
f 430/3/6 431/3/6 434/3/6
f 434/3/6 431/3/6 435/3/6
f 435/3/6 431/3/6 436/3/6
f 433/3/6 434/3/6 437/3/6
f 434/3/6 435/3/6 437/3/6
f 437/3/6 435/3/6 438/3/6
f 433/3/6 437/3/6 439/3/6
f 439/3/6 437/3/6 440/3/6
